<svg xmlns="http://www.w3.org/2000/svg" version="1.1" width="618px" height="605px" transform="rotate(0) scale(1, 1)" viewBox="489 376 618 605">
<path d="M0 0 C1.04882812 2.56689453 1.04882812 2.56689453 2.03125 6.1328125 C2.21857697 6.80051163 2.40590393 7.46821075 2.59890747 8.15614319 C3.24541785 10.47574594 3.87258072 12.80016531 4.5 15.125 C4.97626633 16.85348782 5.45335049 18.58175046 5.93115234 20.30981445 C7.64430508 26.53355822 9.32421594 32.76610534 11 39 C11.31924438 40.18732727 11.63848877 41.37465454 11.96740723 42.59796143 C15.3278414 55.10556209 18.67358868 67.61707765 22.01000977 80.13110352 C28.80205857 105.59904101 35.68522885 131.04182786 42.59893036 156.47699356 C43.43251902 159.54417253 44.26566484 162.61147148 45.09869385 165.67880249 C46.41959368 170.54215467 47.74157418 175.4052118 49.06445885 180.26802444 C49.5517581 182.05962588 50.03879926 183.85129754 50.52555275 185.64304733 C50.98218191 187.3235432 51.43925476 189.00391859 51.89681149 190.68416214 C52.32678366 192.26316852 52.75577638 193.84244201 53.18368626 195.42200851 C54.16084164 199.01115534 55.16552149 202.58682089 56.24563599 206.14645386 C56.62227386 207.39741852 56.99891174 208.64838318 57.38696289 209.93725586 C57.72297012 211.01881454 58.05897736 212.10037323 58.40516663 213.21470642 C58.99448158 215.97416011 58.96750435 217.38954426 58 220 C40.42502816 210.82105926 23.33949496 200.77986051 6.17358398 190.86474609 C-5.41135286 184.17683391 -17.00985804 177.51012672 -28.65429688 170.92626953 C-31.06068476 169.5408054 -33.43336714 168.13089561 -35.79882812 166.67919922 C-36.42992493 166.29924301 -37.06102173 165.9192868 -37.71124268 165.52781677 C-38.93040345 164.79283067 -40.14211076 164.04529597 -41.34490967 163.28382874 C-43.18116643 162.13921862 -43.18116643 162.13921862 -46 161 C-49.56944079 161.91442458 -50.04957041 163.07816158 -52.0859375 166.2890625 C-52.85890739 167.72907867 -53.62111655 169.17490043 -54.375 170.625 C-55.26173417 172.27483149 -56.15120242 173.92319555 -57.04296875 175.5703125 C-57.51911621 176.45235352 -57.99526367 177.33439453 -58.48583984 178.24316406 C-61.12591927 183.0499646 -63.91019209 187.77159449 -66.6875 192.5 C-67.89226225 194.55709541 -69.09668343 196.6143906 -70.30078125 198.671875 C-70.91002441 199.71279297 -71.51926758 200.75371094 -72.14697266 201.82617188 C-80.88719921 216.79625688 -89.49000532 231.84591561 -98.0770874 246.9041748 C-102.6737549 254.96227012 -107.31322273 262.99395077 -112 271 C-117.00745104 279.55549411 -121.96154859 288.14024245 -126.875 296.75 C-127.20788025 297.3332605 -127.5407605 297.916521 -127.88372803 298.51745605 C-130.25738385 302.67741229 -132.628927 306.83857123 -135 311 C-137.70689379 315.75082197 -140.414785 320.50107177 -143.125 325.25 C-143.45704437 325.83192108 -143.78908875 326.41384216 -144.13119507 327.01339722 C-149.33776536 336.13412897 -154.61448027 345.21232052 -159.92236328 354.27441406 C-163.84356481 360.98211454 -167.69131604 367.72785319 -171.5 374.5 C-175.86978994 382.26983843 -180.30702857 389.99554103 -184.8125 397.6875 C-189.90765196 406.38647051 -194.94424677 415.117229 -199.9375 423.875 C-205.12426774 432.97089188 -210.32732368 442.05682864 -215.5625 451.125 C-216.16642578 452.17220215 -216.77035156 453.2194043 -217.39257812 454.29833984 C-220.31635171 459.36512426 -223.24680211 464.42785561 -226.19294739 469.48165894 C-227.60365785 471.90264377 -229.01119943 474.32546327 -230.41842651 476.74847412 C-231.41912677 478.46842113 -232.42448694 480.18565421 -233.42993164 481.90283203 C-234.02926514 482.93520996 -234.62859863 483.96758789 -235.24609375 485.03125 C-235.77904053 485.94455078 -236.3119873 486.85785156 -236.86108398 487.79882812 C-238.15318117 489.88299111 -238.15318117 489.88299111 -238 492 C-237.39309643 492.00173625 -236.78619286 492.0034725 -236.16089827 492.00526136 C-200.22883167 492.10818312 -164.29678427 492.2162725 -128.36475376 492.33111694 C-124.05493687 492.3448873 -119.74511985 492.35861428 -115.43530273 492.37231445 C-114.57725861 492.37504276 -113.71921448 492.37777106 -112.83516901 492.38058204 C-98.92312041 492.4247143 -85.01106363 492.46532816 -71.0990007 492.50465261 C-56.83483678 492.54505023 -42.5706881 492.58920366 -28.30654663 492.63687855 C-19.4975456 492.66620135 -10.68854577 492.69255852 -1.87952494 492.71517897 C4.15273939 492.73094908 10.18498506 492.75035156 16.2172287 492.77266841 C19.70283532 492.78545466 23.18842748 492.79658394 26.67405128 492.80341911 C30.44410514 492.81164283 34.21408738 492.82590868 37.9841156 492.84178162 C39.09790492 492.84275972 40.21169424 492.84373783 41.35923475 492.84474558 C42.36096033 492.85022002 43.36268591 492.85569446 44.39476681 492.8613348 C45.70195404 492.86532186 45.70195404 492.86532186 47.0355491 492.86938947 C49 493 49 493 50 494 C50.10035816 496.52002451 50.13617712 499.012662 50.12939453 501.53320312 C50.13114685 502.32178207 50.13289917 503.11036102 50.13470459 503.9228363 C50.13912358 506.5423296 50.13618496 509.16175596 50.1328125 511.78125 C50.13348553 513.5934653 50.13445554 515.40568052 50.13571167 517.21789551 C50.13718871 521.02108619 50.1350339 524.82425344 50.13037109 528.62744141 C50.1246738 533.51378495 50.12795278 538.40007357 50.13394356 543.2864151 C50.13754901 547.03005389 50.13641066 550.77367955 50.13381577 554.51731873 C50.13314645 556.31953437 50.13397507 558.12175118 50.13629532 559.92396545 C50.13882159 562.43827491 50.13498162 564.95249417 50.12939453 567.46679688 C50.13141876 568.21904037 50.13344299 568.97128387 50.13552856 569.74632263 C50.1142626 574.8857374 50.1142626 574.8857374 49 576 C45.94362169 576.10005077 42.90977348 576.13358308 39.85290527 576.12584114 C38.87617104 576.12729458 37.8994368 576.12874802 36.89310455 576.13024551 C33.5765077 576.13393357 30.259956 576.13040619 26.94335938 576.12698364 C24.55907416 576.12813436 22.17478912 576.12972154 19.79050446 576.13171089 C14.58408806 576.13503129 9.37768108 576.13520531 4.17126465 576.13266373 C-3.57062226 576.12889461 -11.31250037 576.130808 -19.05438721 576.13387203 C-32.87818201 576.13914909 -46.7019722 576.13867689 -60.52576745 576.13579312 C-72.62289168 576.13328181 -84.72001423 576.13261888 -96.81713867 576.13381577 C-97.61823325 576.13389215 -98.41932782 576.13396854 -99.24469799 576.13404724 C-102.49625098 576.13435855 -105.74780397 576.13467695 -108.99935696 576.135007 C-139.52815115 576.13806895 -170.05694241 576.13528786 -200.58573616 576.1299101 C-227.73424235 576.12516417 -254.88274385 576.12558879 -282.03125 576.13037109 C-312.50267865 576.13572075 -342.9741047 576.13785184 -373.44553375 576.13475883 C-376.69130961 576.13443809 -379.93708547 576.13412525 -383.18286133 576.13381577 C-383.98210838 576.13373669 -384.78135544 576.13365761 -385.6048221 576.13357614 C-397.69707938 576.13243661 -409.78933478 576.13377276 -421.8815918 576.13629532 C-435.62511359 576.13914797 -449.36863003 576.1384539 -463.11215115 576.13301457 C-470.81265665 576.13006781 -478.51315058 576.12990164 -486.2136558 576.13366075 C-491.94767518 576.1361522 -497.68168246 576.1334704 -503.41569996 576.12868617 C-505.74743538 576.12756082 -508.07917234 576.12815574 -510.41090679 576.13056196 C-513.55826244 576.13356295 -516.70555314 576.13052459 -519.85290527 576.12584114 C-521.23950348 576.12935289 -521.23950348 576.12935289 -522.65411377 576.13293558 C-528.88584967 576.11415033 -528.88584967 576.11415033 -530 575 C-530.10035816 572.47997549 -530.13617712 569.987338 -530.12939453 567.46679688 C-530.13114685 566.67821793 -530.13289917 565.88963898 -530.13470459 565.0771637 C-530.13912358 562.4576704 -530.13618496 559.83824404 -530.1328125 557.21875 C-530.13348553 555.4065347 -530.13445554 553.59431948 -530.13571167 551.78210449 C-530.13718871 547.97891381 -530.1350339 544.17574656 -530.13037109 540.37255859 C-530.1246738 535.48621505 -530.12795278 530.59992643 -530.13394356 525.7135849 C-530.13754901 521.96994611 -530.13641066 518.22632045 -530.13381577 514.48268127 C-530.13314645 512.68046563 -530.13397507 510.87824882 -530.13629532 509.07603455 C-530.13882159 506.56172509 -530.13498162 504.04750583 -530.12939453 501.53320312 C-530.13141876 500.78095963 -530.13344299 500.02871613 -530.13552856 499.25367737 C-530.1142626 494.1142626 -530.1142626 494.1142626 -529 493 C-527.4676098 492.89811591 -525.93053311 492.86601906 -524.39476681 492.8613348 C-523.39304123 492.85586036 -522.39131565 492.85038591 -521.35923475 492.84474558 C-519.68855077 492.84327842 -519.68855077 492.84327842 -517.9841156 492.84178162 C-516.81128165 492.83684364 -515.6384477 492.83190566 -514.43007332 492.82681805 C-511.16007911 492.81406094 -507.89010805 492.80580375 -504.62009633 492.79939139 C-501.09927776 492.79140999 -497.57848109 492.77770449 -494.05767822 492.76467896 C-487.95280579 492.74288401 -481.84793118 492.72475061 -475.74304008 492.70907402 C-466.91629239 492.6864028 -458.08956891 492.65825622 -449.26284171 492.62875474 C-434.94354903 492.58104505 -420.62424646 492.53779006 -406.30493164 492.49731445 C-392.39151236 492.45797668 -378.47810186 492.4165546 -364.56469727 492.37231445 C-363.70769226 492.36959018 -362.85068725 492.36686591 -361.96771239 492.36405908 C-357.66855447 492.35037989 -353.36939668 492.33665956 -349.07023895 492.32291877 C-313.3801775 492.20890097 -277.69009745 492.10210338 -242 492 C-242.5360788 491.06396942 -243.07215759 490.12793884 -243.6244812 489.1635437 C-244.34196063 487.90965984 -245.05941752 486.65576307 -245.77685547 485.40185547 C-246.12850266 484.78799484 -246.48014984 484.17413422 -246.842453 483.54167175 C-250.33369434 477.43784792 -253.7294968 471.28248608 -257.125 465.125 C-262.55016697 455.31068818 -268.11629261 445.58810119 -273.79931641 435.92041016 C-277.95807804 428.83004328 -282.00315097 421.68274318 -286 414.5 C-291.16210764 405.2255094 -296.44917041 396.03371954 -301.8203125 386.87890625 C-306.33194449 379.17784315 -310.73440829 371.41978021 -315.10791016 363.63964844 C-318.98325896 356.76081642 -322.94220511 349.93475818 -326.9375 343.125 C-332.32813772 333.93342481 -337.56806904 324.66665367 -342.74975586 315.35595703 C-346.74943994 308.18676462 -350.84338833 301.07922924 -355 294 C-359.76429563 285.88580901 -364.42411851 277.72190812 -369 269.5 C-374.09830924 260.34276685 -379.31308055 251.2630683 -384.61376953 242.22167969 C-389.08279022 234.592007 -393.49323929 226.93001312 -397.875 219.25 C-398.20603729 218.67000244 -398.53707458 218.09000488 -398.87814331 217.49243164 C-401.96253597 212.08778626 -405.04329529 206.68107443 -408.12158203 201.27294922 C-410.22542369 197.576964 -412.33061465 193.88175106 -414.4375 190.1875 C-414.77328064 189.5987207 -415.10906128 189.00994141 -415.45501709 188.40332031 C-420.51922508 179.52976871 -425.66515253 170.71358421 -431 162 C-431.69738281 162.40347656 -432.39476562 162.80695313 -433.11328125 163.22265625 C-440.18071154 167.28707587 -447.28750256 171.27312569 -454.4230957 175.21679688 C-465.38218754 181.27495246 -476.26490551 187.44033812 -487.05981445 193.78833008 C-495.38186063 198.67086401 -503.79100883 203.3870115 -512.22729492 208.06884766 C-518.84201958 211.7514892 -525.37742371 215.5329734 -531.76391602 219.60083008 C-533.14143821 220.45862553 -534.56665578 221.23914209 -536 222 C-536.66 221.67 -537.32 221.34 -538 221 C-536.58431527 213.29644862 -534.68911216 205.77205775 -532.640625 198.21484375 C-532.30398834 196.96296768 -531.96735168 195.71109161 -531.62051392 194.42127991 C-530.69541735 190.98184929 -529.76617177 187.5435521 -528.83608246 184.10546875 C-528.04318024 181.17245616 -527.25269871 178.23879331 -526.46218681 175.30513573 C-519.04161199 147.76853448 -511.56926266 120.24579561 -504.08007812 92.7277832 C-503.16010699 89.34718137 -502.24018739 85.96656552 -501.3203125 82.5859375 C-500.98274555 81.34544553 -500.98274555 81.34544553 -500.63835907 80.07989311 C-497.64168973 69.06557446 -494.6619399 58.04685343 -491.70070267 47.02295685 C-490.57766991 42.84389326 -489.45202355 38.6655326 -488.32655144 34.4871254 C-487.45777187 31.26029028 -486.59180639 28.03275553 -485.72943115 24.80419922 C-484.79838315 21.31867526 -483.86085384 17.83495674 -482.921875 14.3515625 C-482.5172554 12.82506577 -482.5172554 12.82506577 -482.10446167 11.26773071 C-481.85439362 10.34487274 -481.60432556 9.42201477 -481.34667969 8.47119141 C-481.13323914 7.67403717 -480.91979858 6.87688293 -480.69989014 6.05557251 C-480 4 -480 4 -478 1 C-470.84507475 2.20374077 -463.86945944 3.71093892 -456.875 5.6328125 C-455.40764404 6.02941071 -455.40764404 6.02941071 -453.91064453 6.434021 C-451.7550414 7.01683807 -449.59995096 7.60155391 -447.4453125 8.18792725 C-441.25819644 9.87072899 -435.06649234 11.5365117 -428.875 13.203125 C-428.19365997 13.38666912 -427.51231995 13.57021324 -426.81033325 13.75931931 C-407.54380292 18.94804253 -388.24590585 24.01822579 -368.95047379 29.09816742 C-360.14767103 31.41586433 -351.34529768 33.73519184 -342.54296875 36.0546875 C-341.58677328 36.30663502 -340.63057781 36.55858253 -339.64540672 36.81816483 C-320.52832661 41.85579454 -301.41846642 46.92039721 -282.3125 52 C-281.62136108 52.18373924 -280.93022217 52.36747849 -280.21813965 52.55678558 C-272.14504667 54.70309694 -264.07228757 56.85066134 -256 59 C-257.76985906 62.93322376 -259.42448291 64.12677901 -263.2578125 66.1796875 C-264.34594238 66.77144775 -265.43407227 67.36320801 -266.55517578 67.97290039 C-267.13624084 68.28244659 -267.71730591 68.5919928 -268.315979 68.91091919 C-271.41038189 70.56001804 -274.48483397 72.24571967 -277.5625 73.92578125 C-278.19060577 74.26731735 -278.81871155 74.60885345 -279.46585083 74.96073914 C-285.42324154 78.20796398 -291.28106105 81.6156229 -297.125 85.0625 C-306.21400322 90.40764581 -315.38056434 95.59532463 -324.59448242 100.72167969 C-335.14033564 106.60441184 -345.5611327 112.69657442 -355.96655273 118.82348633 C-357.28890928 119.58857652 -358.6335477 120.31677385 -360 121 C-358.66253775 125.5651135 -356.81303817 129.18896177 -354.25 133.1875 C-351.13830394 138.05718182 -348.33243019 143.02217719 -345.58447266 148.10620117 C-343.00648575 152.814503 -340.28200066 157.43496259 -337.5625 162.0625 C-332.51016715 170.69041317 -327.48887904 179.3352416 -322.5 188 C-317.11973277 197.3410213 -311.70560798 206.66146003 -306.26513672 215.9675293 C-302.02169879 223.23205235 -297.81883466 230.51925518 -293.625 237.8125 C-288.48345339 246.74874318 -283.27029364 255.63911125 -278 264.5 C-272.72969678 273.36090485 -267.51753662 282.25181552 -262.375 291.1875 C-261.462948 292.76990479 -261.462948 292.76990479 -260.5324707 294.38427734 C-257.68581125 299.3254625 -254.84479987 304.26972446 -252.01672363 309.22157288 C-250.41256736 312.02592533 -248.79907409 314.82490569 -247.1875 317.625 C-246.29780518 319.19157349 -246.29780518 319.19157349 -245.39013672 320.78979492 C-244.84244629 321.73830322 -244.29475586 322.68681152 -243.73046875 323.6640625 C-243.24989014 324.50404785 -242.76931152 325.3440332 -242.27416992 326.20947266 C-241.85369385 326.80034668 -241.43321777 327.3912207 -241 328 C-240.34 328 -239.68 328 -239 328 C-237.36382112 325.68986708 -237.36382112 325.68986708 -235.68359375 322.67578125 C-235.35557266 322.1113884 -235.02755157 321.54699554 -234.68959045 320.96549988 C-233.5986941 319.08504999 -232.51827195 317.19878405 -231.4375 315.3125 C-230.67266094 313.99043043 -229.907024 312.66882215 -229.140625 311.34765625 C-227.54620204 308.5976526 -225.95526163 305.84567806 -224.36669922 303.09228516 C-221.12103686 297.47257128 -217.83407154 291.87722357 -214.54656982 286.28192139 C-212.78287853 283.27900733 -211.02250563 280.27414891 -209.26171875 277.26953125 C-206.75361597 272.99070589 -204.24486397 268.71226186 -201.73550415 264.43417358 C-194.24478125 251.66354815 -186.76259601 238.88811923 -179.30786133 226.09643555 C-174.35521162 217.60124108 -169.38210451 209.11812992 -164.40673828 200.63623047 C-159.03142632 191.47196149 -153.67036508 182.29952971 -148.32177734 173.11962891 C-145.10036496 167.5931211 -141.87096225 162.071399 -138.6328125 156.5546875 C-138.2583197 155.91654114 -137.8838269 155.27839478 -137.49798584 154.62091064 C-135.67812666 151.52007264 -133.85739316 148.41975379 -132.03515625 145.3203125 C-127.29407436 137.24876306 -122.62783572 129.13690488 -118 121 C-120.47920705 118.22660553 -123.20522701 116.59211203 -126.43359375 114.76953125 C-127.54283203 114.13982422 -128.65207031 113.51011719 -129.79492188 112.86132812 C-131.00909279 112.17834666 -132.22328612 111.49540507 -133.4375 110.8125 C-134.70016258 110.09752203 -135.96252758 109.3820183 -137.22460938 108.66601562 C-139.84764562 107.17845855 -142.47195003 105.69317587 -145.09716797 104.20947266 C-151.07685385 100.82744795 -157.03747841 97.41216927 -163 94 C-165.3188998 92.67428505 -167.63788158 91.34871512 -169.95703125 90.0234375 C-170.53238617 89.69461075 -171.10774109 89.365784 -171.70053101 89.0269928 C-176.54220398 86.26037677 -181.38675169 83.49881693 -186.23153687 80.73765564 C-191.45845995 77.75774498 -196.6787405 74.76635324 -201.89794922 71.77294922 C-204.77108671 70.13083333 -207.65189334 68.50315316 -210.53515625 66.87890625 C-212.10704399 65.98224953 -213.67868157 65.08515402 -215.25 64.1875 C-216.30513794 63.60186279 -216.30513794 63.60186279 -217.3815918 63.00439453 C-219.265625 61.91796875 -219.265625 61.91796875 -222 60 C-222 59.01 -222 58.02 -222 57 C-221.14875549 56.77688141 -220.29751099 56.55376282 -219.42047119 56.32388306 C-182.766294 46.71579827 -146.11234255 37.10668684 -109.48009872 27.41524887 C-107.43705972 26.87488355 -105.39391291 26.33492764 -103.35073853 25.79507446 C-87.76346604 21.67591578 -72.18715435 17.51855431 -56.62487602 13.30588531 C-54.11506557 12.62686064 -51.60496577 11.94891769 -49.09474182 11.27142334 C-48.27605842 11.05046242 -47.45737501 10.8295015 -46.61388302 10.60184479 C-44.97394832 10.15927651 -43.33399798 9.7167662 -41.69403172 9.27431488 C-36.90680753 7.98196871 -32.12179319 6.68180439 -27.33828545 5.37577343 C-24.39588541 4.57418421 -21.45167026 3.77943261 -18.50692749 2.98649788 C-17.13618385 2.61579116 -15.76623928 2.24211563 -14.39715576 1.86532402 C-12.52655103 1.35085587 -10.65287276 0.84760184 -8.77905273 0.3449707 C-7.20473732 -0.08322212 -7.20473732 -0.08322212 -5.59861755 -0.52006531 C-3 -1 -3 -1 0 0 Z " fill="#3d85c6" transform="translate(1040,393)"/>
<path d="M0 0 C1.0091748 0.01087646 2.01834961 0.02175293 3.05810547 0.03295898 C19.84234149 0.39205979 34.42616995 6.52960937 46.5625 18.375 C59.18067523 33.17025476 64.74063924 50.01067496 63.5625 69.375 C61.12790924 86.70468544 54.11591792 101.45997278 40.6875 112.8125 C29.95379101 120.77459399 17.85112631 125.30333659 4.5625 126.375 C3.92570313 126.42785156 3.28890625 126.48070312 2.6328125 126.53515625 C-13.68185805 127.24315139 -29.81401603 121.5390915 -42.0625 110.8125 C-43.54111127 109.35360355 -45.00220868 107.87653554 -46.4375 106.375 C-46.9840625 105.859375 -47.530625 105.34375 -48.09375 104.8125 C-58.76611104 93.91306745 -63.08153083 77.69118275 -63.8125 62.875 C-62.91810294 44.74625951 -56.67993866 29.01109989 -43.4375 16.375 C-42.89867187 15.81683594 -42.35984375 15.25867188 -41.8046875 14.68359375 C-30.84236509 4.1344242 -14.80122571 -0.21792146 0 0 Z M-16.8125 43.5078125 C-22.51324793 50.05819113 -22.80509765 57.6348771 -22.7109375 65.94921875 C-22.15276763 72.94228986 -20.30712843 79.1402267 -15 83.9375 C-10.13363519 87.74252307 -5.62304723 88.66755522 0.5 88.6875 C1.68464844 88.70425781 2.86929688 88.72101563 4.08984375 88.73828125 C9.80907765 88.13998119 13.59886641 85.88087667 17.3125 81.5625 C18.17101562 80.59376953 18.17101562 80.59376953 19.046875 79.60546875 C23.9881219 72.3336853 23.41488284 62.80921356 22.5625 54.375 C20.80972551 47.25968301 16.97649433 42.49926314 10.75 38.625 C0.6914049 34.6804529 -8.99777083 35.91366036 -16.8125 43.5078125 Z " fill="#3d85c6" transform="translate(726.4375,997.625)"/>
<path d="M0 0 C0.79719955 0.00222061 1.59439911 0.00444122 2.41575623 0.00672913 C3.31661453 0.00680466 4.21747284 0.00688019 5.14562988 0.00695801 C6.12478867 0.01211929 7.10394745 0.01728058 8.11277771 0.02259827 C9.11018478 0.02401321 10.10759186 0.02542816 11.13522339 0.02688599 C14.3348027 0.03250337 17.53431315 0.04505881 20.73387146 0.05775452 C22.89728191 0.06276728 25.06069345 0.06733057 27.22410583 0.07142639 C32.53988471 0.08247845 37.85562317 0.09923348 43.17137146 0.12025452 C46.79566092 8.57420335 50.05180783 17.113576 53.12840271 25.78041077 C53.593486 27.08231236 54.05892413 28.38408723 54.52468872 29.68574524 C55.50728276 32.43310198 56.48826497 35.18102534 57.46775818 37.92948914 C60.02498468 45.10486447 62.58963589 52.27757575 65.15965271 59.44837952 C65.41524586 60.16171762 65.670839 60.87505573 65.9341774 61.61001015 C69.31223579 71.03062967 72.74897031 80.42632081 76.27684021 89.79212952 C76.65854874 90.8067778 77.04025726 91.82142609 77.43353271 92.86682129 C79.18750313 97.5212595 80.95395835 102.1704996 82.73704529 106.81385803 C83.35077834 108.43283857 83.96431705 110.0518928 84.57762146 111.67103577 C84.85973984 112.39293091 85.14185822 113.11482605 85.43252563 113.8585968 C87.28461231 118.78053196 87.28461231 118.78053196 86.17137146 122.12025452 C72.97137146 122.12025452 59.77137146 122.12025452 46.17137146 122.12025452 C43.68244984 116.52018088 41.32314677 110.85832201 39.17137146 105.12025452 C26.63137146 105.12025452 14.09137146 105.12025452 1.17137146 105.12025452 C-0.47862854 110.07025452 -2.12862854 115.02025452 -3.82862854 120.12025452 C-5.82862854 122.12025452 -5.82862854 122.12025452 -9.72755432 122.3473053 C-11.40971647 122.34698793 -13.09189873 122.33564847 -14.77394104 122.31556702 C-15.65895294 122.31273712 -16.54396484 122.30990723 -17.45579529 122.30699158 C-20.28854266 122.29577692 -23.12097638 122.27067022 -25.95362854 122.24525452 C-27.87159273 122.23522637 -29.78956187 122.22610023 -31.70753479 122.21791077 C-36.4146873 122.19583341 -41.1216047 122.16129497 -45.82862854 122.12025452 C-46.82862854 120.12025452 -46.82862854 120.12025452 -45.95851135 117.2301178 C-45.49070508 115.96403247 -45.01435061 114.70108867 -44.53175354 113.44056702 C-44.27140823 112.7417189 -44.01106293 112.04287079 -43.74282837 111.32284546 C-43.16763193 109.78140188 -42.5889221 108.24126611 -42.00724792 106.70225525 C-40.73220265 103.32865867 -39.47340431 99.94907203 -38.21359253 96.56976318 C-37.52668287 94.72757993 -36.8389018 92.88572141 -36.15032959 91.04415894 C-32.16083803 80.36419889 -28.26962728 69.6486371 -24.3709259 58.93528748 C-18.71753312 43.40872917 -13.05243413 27.88695691 -7.20362854 12.43275452 C-6.76059387 11.25833801 -6.3175592 10.08392151 -5.86109924 8.87391663 C-5.46624329 7.83759094 -5.07138733 6.80126526 -4.66456604 5.73353577 C-4.16255676 4.41542908 -4.16255676 4.41542908 -3.65040588 3.07069397 C-2.42378965 0.15939358 -2.42378965 0.15939358 0 0 Z M19.17137146 46.12025452 C17.802792 50.2197579 16.4540019 54.32550313 15.10887146 58.43275452 C14.71893005 59.60000061 14.32898865 60.7672467 13.92723083 61.96986389 C13.56307068 63.08812561 13.19891052 64.20638733 12.82371521 65.35853577 C12.48332214 66.3901886 12.14292908 67.42184143 11.79222107 68.48475647 C10.90781699 71.20514343 10.90781699 71.20514343 12.17137146 74.12025452 C17.78137146 74.12025452 23.39137146 74.12025452 29.17137146 74.12025452 C28.51145739 69.50085605 27.99226839 66.08688008 26.54246521 61.84291077 C26.22986755 60.91800842 25.9172699 59.99310608 25.59519958 59.04017639 C25.2697113 58.09722717 24.94422302 57.15427795 24.60887146 56.18275452 C24.27951599 55.21273499 23.95016052 54.24271545 23.61082458 53.24330139 C22.80312666 50.86703067 21.98986198 48.49282483 21.17137146 46.12025452 C20.51137146 46.12025452 19.85137146 46.12025452 19.17137146 46.12025452 Z " fill="#3d85c6" transform="translate(1000.8286285400391,999.8797454833984)"/>
<path d="M0 0 C13.2 0 26.4 0 40 0 C42.11160869 4.22321737 43.62583477 7.58790812 44.9453125 11.99853516 C45.29577637 13.16059479 45.64624023 14.32265442 46.00732422 15.51992798 C46.37615723 16.76374237 46.74499023 18.00755676 47.125 19.2890625 C47.51668685 20.59707509 47.90878412 21.90496484 48.30126953 23.21273804 C49.12158021 25.95022622 49.93819955 28.68877829 50.75195312 31.42822266 C51.78512365 34.90591591 52.82542316 38.38142237 53.86831665 41.85621071 C54.67874926 44.55820224 55.48628574 47.2610525 56.29290771 49.96418381 C56.85843429 51.85857107 57.42553141 53.75248927 57.99267578 55.64639282 C60.19112959 63.05461358 62.1962985 70.48576148 64 78 C64.66 78 65.32 78 66 78 C66.12322632 76.99359467 66.24645264 75.98718933 66.37341309 74.95028687 C66.98599079 71.08832036 67.90159872 67.53800889 69.02539062 63.79541016 C69.22875534 63.11324432 69.43212006 62.43107849 69.64164734 61.72824097 C70.30824039 59.49699999 70.98204273 57.26801339 71.65625 55.0390625 C72.12359878 53.48215005 72.59059369 51.92513133 73.05725098 50.36801147 C74.03256056 47.11758853 75.01130515 43.86822689 75.99267578 40.61962891 C77.25266693 36.44813742 78.50526704 32.27447104 79.75550079 28.10004616 C80.71725349 24.89096152 81.68221664 21.6828497 82.64823914 18.47504807 C83.11159334 16.93545331 83.57408857 15.39559977 84.03572083 13.85548782 C84.67884421 11.71209342 85.32611654 9.56999763 85.97460938 7.42822266 C86.3424353 6.20801422 86.71026123 4.98780579 87.0892334 3.73062134 C88 1 88 1 89 0 C92.02977804 -0.08871273 95.03667022 -0.1151935 98.06640625 -0.09765625 C98.97502914 -0.0962413 99.88365204 -0.09482635 100.81980896 -0.09336853 C103.73407221 -0.08775193 106.64825981 -0.07519665 109.5625 -0.0625 C111.53320202 -0.05748714 113.50390524 -0.05292386 115.47460938 -0.04882812 C120.31643559 -0.03777711 125.15820495 -0.02050138 130 0 C131 2 131 2 130.40617371 4.3447876 C130.06741714 5.33218933 129.72866058 6.31959106 129.37963867 7.33691406 C128.99658569 8.46566956 128.61353271 9.59442505 128.21887207 10.75738525 C127.57492493 12.61771393 127.57492493 12.61771393 126.91796875 14.515625 C126.47134424 15.82363351 126.02543676 17.13188704 125.5802002 18.44036865 C124.62386941 21.24653729 123.66303095 24.05110479 122.69857788 26.85449219 C121.18570161 31.25218102 119.68207212 35.65298864 118.1809082 40.0546875 C117.93031993 40.78945564 117.67973166 41.52422379 117.4215498 42.28125763 C116.91227966 43.7746536 116.403053 45.26806439 115.8938694 46.76148987 C115.12065624 49.02835983 114.34648161 51.2948998 113.57218933 53.56140137 C110.19300472 63.45921182 106.85756019 73.37075253 103.5625 83.296875 C103.35203852 83.93059273 103.14157703 84.56431046 102.92473793 85.21723175 C101.11723049 90.66095158 99.3131071 96.1057831 97.51425171 101.55236816 C96.43242023 104.82736105 95.34727201 108.10123932 94.26171875 111.375 C93.94295776 112.34475769 93.62419678 113.31451538 93.29577637 114.31365967 C93.00569702 115.18726135 92.71561768 116.06086304 92.41674805 116.9609375 C92.1655571 117.72196777 91.91436615 118.48299805 91.65556335 119.26708984 C91 121 91 121 90 122 C88.4513346 122.11927365 86.89732296 122.17009587 85.34423828 122.19287109 C84.35295929 122.20893402 83.3616803 122.22499695 82.34036255 122.24154663 C77.80259732 122.28580078 73.26498107 122.32705615 68.72705078 122.35009766 C66.32916572 122.36667515 63.93133043 122.39398835 61.53369141 122.43212891 C58.08730276 122.48671294 54.64207436 122.50874338 51.1953125 122.5234375 C50.12024445 122.54610687 49.04517639 122.56877625 47.93753052 122.59213257 C46.44115555 122.58785751 46.44115555 122.58785751 44.91455078 122.58349609 C43.5967009 122.59562637 43.5967009 122.59562637 42.25222778 122.60800171 C40 122 40 122 38.39176941 120.03292847 C36.57150424 116.06622678 35.1730963 112.03504657 33.81713867 107.88964844 C33.51422409 106.97988251 33.21130951 106.07011658 32.8992157 105.13278198 C31.8998509 102.12681084 30.90895967 99.11811609 29.91796875 96.109375 C29.21975293 94.00471378 28.52095724 91.90024484 27.8216095 89.79595947 C25.97912335 84.24756242 24.14357694 78.69689518 22.30975342 73.14562988 C19.38759972 64.30399726 16.45446838 55.4659991 13.52227211 46.62769318 C12.50683634 43.563931 11.49402938 40.49931069 10.48173523 37.43450928 C9.84496795 35.51065863 9.20807448 33.58684975 8.57104492 31.66308594 C8.11865338 30.29222651 8.11865338 30.29222651 7.65712261 28.89367294 C6.21902095 24.56078512 4.74230364 20.24974831 3.16616821 15.96496582 C2.87978391 15.18181126 2.5933996 14.39865669 2.29833698 13.59177017 C1.76351948 12.14101308 1.21950564 10.69359788 0.66439342 9.25048447 C-0.73966871 5.44428158 -1.0215686 4.0862744 0 0 Z " fill="#3d85c6" transform="translate(511,1000)"/>
<path d="M0 0 C14.52 0 29.04 0 44 0 C50.75 13.5 50.75 13.5 53.2109375 19.078125 C53.99404297 20.84736328 53.99404297 20.84736328 54.79296875 22.65234375 C55.31503906 23.83957031 55.83710937 25.02679687 56.375 26.25 C56.92551549 27.49621118 57.47629557 28.74230552 58.02734375 29.98828125 C59.35415149 32.99105665 60.67832274 35.99496378 62 39 C63.98576282 36.02135577 65.40402731 33.11363524 66.8984375 29.86328125 C67.17466949 29.26501022 67.45090149 28.6667392 67.73550415 28.05033875 C68.61772205 26.13881482 69.49658593 24.22577454 70.375 22.3125 C71.24669941 20.4172802 72.11916146 18.52242065 72.99307251 16.6282196 C73.79177343 14.89653456 74.58809532 13.16375281 75.38427734 11.4309082 C77.19298632 7.59020297 79.10145083 3.79709835 81 0 C95.19 0 109.38 0 124 0 C124 4.38541472 122.79381631 6.94473516 120.8515625 10.72265625 C120.52372269 11.37545563 120.19588287 12.028255 119.85810852 12.70083618 C118.788324 14.82549752 117.70697739 16.94402545 116.625 19.0625 C115.88042891 20.53400219 115.13637198 22.00576465 114.39282227 23.4777832 C110.99279026 30.19479705 107.56832821 36.89972909 104.05786133 43.55981445 C103.30383733 44.99178637 102.557705 46.42793857 101.8190918 47.86791992 C99.43195347 52.47730712 96.84016178 56.88704813 94.09375 61.29296875 C83.13494794 79.41455713 80.96538978 94.90278888 81.88298035 115.98605347 C81.95467001 117.65628628 81.98206817 119.32832554 82 121 C80.15723491 122.84276509 77.57036241 122.12874411 75.11865234 122.13894653 C74.29574707 122.1369223 73.4728418 122.13489807 72.625 122.1328125 C71.78533691 122.13376923 70.94567383 122.13472595 70.08056641 122.13571167 C68.30175705 122.13639348 66.52294523 122.13453917 64.74414062 122.13037109 C62.01166224 122.12502283 59.27934824 122.13031605 56.546875 122.13671875 C54.8229163 122.13605797 53.09895771 122.13477681 51.375 122.1328125 C50.55209473 122.13483673 49.72918945 122.13686096 48.88134766 122.13894653 C43.11495054 122.11495054 43.11495054 122.11495054 42 121 C42.00076719 118.56667183 42.05763227 116.15349694 42.140625 113.72265625 C42.55878761 93.06309151 40.74321479 78.6498884 29.64990234 60.69287109 C27.35945466 56.95454053 25.3726023 53.08726361 23.375 49.1875 C22.59685362 47.71258979 21.81675935 46.2387063 21.03515625 44.765625 C17.04243609 37.19624247 13.08302808 29.60967839 9.14752197 22.01040649 C8.25879098 20.2976094 7.36715455 18.58631669 6.47259521 16.8765564 C5.20984158 14.46190916 3.9573149 12.04221589 2.70703125 9.62109375 C2.31801132 8.88240051 1.92899139 8.14370728 1.52818298 7.38262939 C0.62395572 5.61861359 -0.19698981 3.81233367 -1 2 C-0.67 1.34 -0.34 0.68 0 0 Z " fill="#3d85c6" transform="translate(812,1000)"/>
<path d="M0 0 C0.91644287 0.00523682 1.83288574 0.01047363 2.77709961 0.01586914 C3.76645508 0.0190918 4.75581055 0.02231445 5.77514648 0.02563477 C6.81606445 0.03401367 7.85698242 0.04239258 8.92944336 0.05102539 C10.49662109 0.05779297 10.49662109 0.05779297 12.09545898 0.06469727 C14.68600996 0.07652627 17.27644895 0.0930085 19.86694336 0.11352539 C23.71240365 7.36471844 26.36963702 14.84995553 29.04272461 22.59594727 C29.37916992 23.54920898 29.71561523 24.5024707 30.06225586 25.48461914 C30.51109131 26.78290649 30.51109131 26.78290649 30.96899414 28.10742188 C31.6915569 30.28986042 31.6915569 30.28986042 33.86694336 31.11352539 C33.99004883 30.2431665 34.1131543 29.37280762 34.23999023 28.47607422 C34.84606625 25.22549596 35.73184279 22.40115611 36.89819336 19.31274414 C37.29651367 18.2537793 37.69483398 17.19481445 38.10522461 16.10375977 C38.72977539 14.46890625 38.72977539 14.46890625 39.36694336 12.80102539 C39.99149414 11.13716797 39.99149414 11.13716797 40.62866211 9.43969727 C43.72651079 1.25395796 43.72651079 1.25395796 44.86694336 0.11352539 C46.4895188 0.01435969 48.11634167 -0.01727238 49.74194336 -0.01928711 C50.72678711 -0.02057617 51.71163086 -0.02186523 52.72631836 -0.02319336 C53.76272461 -0.01932617 54.79913086 -0.01545898 55.86694336 -0.01147461 C57.42155273 -0.01727539 57.42155273 -0.01727539 59.00756836 -0.02319336 C59.99241211 -0.0219043 60.97725586 -0.02061523 61.99194336 -0.01928711 C62.90202148 -0.01815918 63.81209961 -0.01703125 64.74975586 -0.01586914 C66.86694336 0.11352539 66.86694336 0.11352539 67.86694336 1.11352539 C67.96593897 2.91861912 67.99493487 4.72759467 67.99633789 6.53540039 C67.99949005 7.69330078 68.00264221 8.85120117 68.00588989 10.04418945 C68.00285355 11.93476074 68.00285355 11.93476074 67.99975586 13.86352539 C68.00071259 15.14710937 68.00166931 16.43069336 68.00265503 17.75317383 C68.00413167 20.47356363 68.00197855 23.19392064 67.99731445 25.91430664 C67.99161716 29.40837208 67.99489635 32.90236072 68.00088692 36.39642334 C68.0053609 39.71879692 68.00223221 43.04114963 67.99975586 46.36352539 C68.00178009 47.62390625 68.00380432 48.88428711 68.00588989 50.18286133 C68.00116165 51.91971191 68.00116165 51.91971191 67.99633789 53.69165039 C67.9955423 54.71677734 67.9947467 55.7419043 67.993927 56.7980957 C67.86694336 59.11352539 67.86694336 59.11352539 66.86694336 60.11352539 C65.53650711 60.21189749 64.20100992 60.24431131 62.86694336 60.24633789 C62.06256836 60.24762695 61.25819336 60.24891602 60.42944336 60.25024414 C59.58381836 60.24637695 58.73819336 60.24250977 57.86694336 60.23852539 C57.02131836 60.24239258 56.17569336 60.24625977 55.30444336 60.25024414 C54.50006836 60.24895508 53.69569336 60.24766602 52.86694336 60.24633789 C52.12444336 60.24520996 51.38194336 60.24408203 50.61694336 60.24291992 C48.86694336 60.11352539 48.86694336 60.11352539 47.86694336 59.11352539 C47.79374715 56.41697686 47.77451799 53.74661081 47.80444336 51.05102539 C47.80895508 50.29241211 47.8134668 49.53379883 47.81811523 48.75219727 C47.82993656 46.87260668 47.84787258 44.9930564 47.86694336 43.11352539 C47.20694336 43.11352539 46.54694336 43.11352539 45.86694336 43.11352539 C45.75737305 43.67040039 45.64780273 44.22727539 45.53491211 44.80102539 C44.42419088 50.1469357 42.8946881 55.04416355 40.86694336 60.11352539 C35.25694336 60.11352539 29.64694336 60.11352539 23.86694336 60.11352539 C21.62213694 54.50150933 20.03345762 49.04216257 18.86694336 43.11352539 C18.20694336 43.11352539 17.54694336 43.11352539 16.86694336 43.11352539 C16.87854492 44.25692383 16.89014648 45.40032227 16.90209961 46.57836914 C16.91147624 48.06925293 16.92057657 49.56013848 16.92944336 51.05102539 C16.93782227 51.80577148 16.94620117 52.56051758 16.95483398 53.33813477 C16.96346777 55.26346852 16.91918669 57.1888812 16.86694336 59.11352539 C15.34484746 60.63562129 13.98484254 60.2431206 11.86694336 60.24633789 C11.06256836 60.24762695 10.25819336 60.24891602 9.42944336 60.25024414 C8.58381836 60.24637695 7.73819336 60.24250977 6.86694336 60.23852539 C6.02131836 60.24239258 5.17569336 60.24625977 4.30444336 60.25024414 C3.50006836 60.24895508 2.69569336 60.24766602 1.86694336 60.24633789 C1.12444336 60.24520996 0.38194336 60.24408203 -0.38305664 60.24291992 C-2.13305664 60.11352539 -2.13305664 60.11352539 -3.13305664 59.11352539 C-3.23205225 57.30843166 -3.26104815 55.49945611 -3.26245117 53.69165039 C-3.26560333 52.53375 -3.26875549 51.37584961 -3.27200317 50.18286133 C-3.26997894 48.92248047 -3.26795471 47.66209961 -3.26586914 46.36352539 C-3.26730423 44.43814941 -3.26730423 44.43814941 -3.26876831 42.47387695 C-3.27024495 39.75348715 -3.26809183 37.03313014 -3.26342773 34.31274414 C-3.25773045 30.8186787 -3.26100963 27.32469006 -3.2670002 23.83062744 C-3.27147419 20.50825386 -3.26834549 17.18590116 -3.26586914 13.86352539 C-3.26789337 12.60314453 -3.2699176 11.34276367 -3.27200317 10.04418945 C-3.26885101 8.88628906 -3.26569885 7.72838867 -3.26245117 6.53540039 C-3.26125778 4.99770996 -3.26125778 4.99770996 -3.26004028 3.42895508 C-3.095188 0.42302561 -3.00181514 0.15976239 0 0 Z " fill="#3d85c6" transform="translate(516.133056640625,1148.886474609375)"/>
<path d="M0 0 C4.06948179 0.13037519 6.29450286 0.31935435 9.62548828 2.78979492 C11.70874145 5.68951499 13.32391125 8.60721834 14.93408203 11.79370117 C16.00339806 13.60251172 17.10744372 15.38592474 18.22070312 17.16796875 C19.26206808 18.84307599 20.26699757 20.54066972 21.27001953 22.23901367 C22.68299235 24.87872573 22.68299235 24.87872573 24.93408203 25.79370117 C24.92884521 25.07190674 24.9236084 24.3501123 24.91821289 23.60644531 C24.89750845 20.35637268 24.88444285 17.10631389 24.87158203 13.85620117 C24.86320313 12.71989258 24.85482422 11.58358398 24.84619141 10.4128418 C24.84296875 9.33325195 24.83974609 8.25366211 24.83642578 7.14135742 C24.83118896 6.14112549 24.82595215 5.14089355 24.82055664 4.11035156 C24.93408203 1.79370117 24.93408203 1.79370117 25.93408203 0.79370117 C27.26451828 0.69532907 28.60001547 0.66291525 29.93408203 0.66088867 C30.73845703 0.65959961 31.54283203 0.65831055 32.37158203 0.65698242 C33.21720703 0.66084961 34.06283203 0.6647168 34.93408203 0.66870117 C36.20251953 0.66290039 36.20251953 0.66290039 37.49658203 0.65698242 C38.30095703 0.65827148 39.10533203 0.65956055 39.93408203 0.66088867 C40.67658203 0.6620166 41.41908203 0.66314453 42.18408203 0.66430664 C43.93408203 0.79370117 43.93408203 0.79370117 44.93408203 1.79370117 C45.03307764 3.5987949 45.06207354 5.40777045 45.06347656 7.21557617 C45.06662872 8.37347656 45.06978088 9.53137695 45.07302856 10.72436523 C45.07100433 11.98474609 45.0689801 13.24512695 45.06689453 14.54370117 C45.06785126 15.82728516 45.06880798 17.11086914 45.0697937 18.43334961 C45.07127034 21.15373941 45.06911722 23.87409643 45.06445312 26.59448242 C45.05875584 30.08854786 45.06203503 33.5825365 45.06802559 37.07659912 C45.07249958 40.3989727 45.06937088 43.72132541 45.06689453 47.04370117 C45.06891876 48.30408203 45.07094299 49.56446289 45.07302856 50.86303711 C45.06830032 52.5998877 45.06830032 52.5998877 45.06347656 54.37182617 C45.06268097 55.39695312 45.06188538 56.42208008 45.06106567 57.47827148 C44.93408203 59.79370117 44.93408203 59.79370117 43.93408203 60.79370117 C37.64449243 61.99263415 31.09979201 62.96541377 24.93408203 60.79370117 C19.33159455 56.1166306 16.17077971 49.20290004 12.93408203 42.79370117 C11.07549115 39.10585989 11.07549115 39.10585989 7.93408203 36.79370117 C7.94193726 37.83095337 7.94193726 37.83095337 7.94995117 38.88916016 C7.97065703 42.00316469 7.98372166 45.11715479 7.99658203 48.23120117 C8.00496094 49.31981445 8.01333984 50.40842773 8.02197266 51.5300293 C8.02680664 53.08173828 8.02680664 53.08173828 8.03173828 54.66479492 C8.03959351 56.10230103 8.03959351 56.10230103 8.04760742 57.56884766 C7.93408203 59.79370117 7.93408203 59.79370117 6.93408203 60.79370117 C5.60364578 60.89207327 4.26814859 60.9244871 2.93408203 60.92651367 C2.12970703 60.92780273 1.32533203 60.9290918 0.49658203 60.93041992 C-0.34904297 60.92655273 -1.19466797 60.92268555 -2.06591797 60.91870117 C-2.91154297 60.92256836 -3.75716797 60.92643555 -4.62841797 60.93041992 C-5.43279297 60.92913086 -6.23716797 60.9278418 -7.06591797 60.92651367 C-7.80841797 60.92538574 -8.55091797 60.92425781 -9.31591797 60.9230957 C-11.06591797 60.79370117 -11.06591797 60.79370117 -12.06591797 59.79370117 C-12.16491358 57.98860744 -12.19390948 56.17963189 -12.1953125 54.37182617 C-12.19846466 53.21392578 -12.20161682 52.05602539 -12.2048645 50.86303711 C-12.20284027 49.60265625 -12.20081604 48.34227539 -12.19873047 47.04370117 C-12.20016556 45.1183252 -12.20016556 45.1183252 -12.20162964 43.15405273 C-12.20310628 40.43366294 -12.20095316 37.71330592 -12.19628906 34.99291992 C-12.19059177 31.49885448 -12.19387096 28.00486584 -12.19986153 24.51080322 C-12.20433551 21.18842964 -12.20120682 17.86607694 -12.19873047 14.54370117 C-12.2007547 13.28332031 -12.20277893 12.02293945 -12.2048645 10.72436523 C-12.20171234 9.56646484 -12.19856018 8.40856445 -12.1953125 7.21557617 C-12.19411911 5.67788574 -12.19411911 5.67788574 -12.19290161 4.10913086 C-11.88787822 -1.45268961 -4.33361142 0.07565013 0 0 Z " fill="#3d85c6" transform="translate(968.06591796875,1148.206298828125)"/>
<path d="M0 0 C6.59311448 4.12373766 10.11946663 8.83276549 12.1171875 16.32421875 C11.6221875 17.80921875 11.6221875 17.80921875 11.1171875 19.32421875 C7.82559434 19.38212228 4.53413147 19.41778136 1.2421875 19.44921875 C-0.16353516 19.47435547 -0.16353516 19.47435547 -1.59765625 19.5 C-2.94150391 19.50966797 -2.94150391 19.50966797 -4.3125 19.51953125 C-5.13991699 19.53000488 -5.96733398 19.54047852 -6.81982422 19.55126953 C-8.8828125 19.32421875 -8.8828125 19.32421875 -10.8828125 17.32421875 C-13.21685304 16.96707075 -13.21685304 16.96707075 -15.8203125 17.01171875 C-16.69558594 16.99496094 -17.57085938 16.97820312 -18.47265625 16.9609375 C-21.33955395 17.39306308 -22.16808086 18.028951 -23.8828125 20.32421875 C-25.55931408 25.3537235 -25.72199723 30.35213464 -23.6328125 35.26171875 C-21.73878236 37.49396855 -20.57992448 38.25582052 -17.8828125 39.32421875 C-15.29126331 39.56451834 -15.29126331 39.56451834 -12.6328125 39.44921875 C-11.29476563 39.42214844 -11.29476563 39.42214844 -9.9296875 39.39453125 C-9.25421875 39.37132812 -8.57875 39.348125 -7.8828125 39.32421875 C-7.8828125 38.66421875 -7.8828125 38.00421875 -7.8828125 37.32421875 C-8.59308594 37.33582031 -9.30335937 37.34742188 -10.03515625 37.359375 C-10.95425781 37.36839844 -11.87335938 37.37742187 -12.8203125 37.38671875 C-14.19509766 37.40412109 -14.19509766 37.40412109 -15.59765625 37.421875 C-17.8828125 37.32421875 -17.8828125 37.32421875 -18.8828125 36.32421875 C-18.9817419 34.15941078 -19.0125235 31.9912809 -19.0078125 29.82421875 C-19.01039062 28.63828125 -19.01296875 27.45234375 -19.015625 26.23046875 C-18.8828125 23.32421875 -18.8828125 23.32421875 -17.8828125 22.32421875 C-15.74928076 22.22418586 -13.61243708 22.19340827 -11.4765625 22.19140625 C-10.17589844 22.19011719 -8.87523437 22.18882813 -7.53515625 22.1875 C-6.51397705 22.19064209 -6.51397705 22.19064209 -5.47216797 22.19384766 C-3.39152735 22.19919635 -1.31110261 22.19390195 0.76953125 22.1875 C2.72052734 22.18943359 2.72052734 22.18943359 4.7109375 22.19140625 C5.91427734 22.19253418 7.11761719 22.19366211 8.35742188 22.19482422 C11.1171875 22.32421875 11.1171875 22.32421875 12.1171875 23.32421875 C13.01000877 30.56868702 13.79737673 39.48232265 10.8359375 46.25390625 C9.06589373 48.32163919 7.36371107 49.7938545 5.1171875 51.32421875 C4.46878906 51.81792969 3.82039063 52.31164063 3.15234375 52.8203125 C-4.16276553 57.93364631 -12.09516897 59.16303927 -20.8828125 58.32421875 C-29.58225272 56.75568332 -36.38620138 52.90284332 -41.7578125 45.82421875 C-46.65365316 38.26688081 -47.69460121 29.07660085 -46.3203125 20.26171875 C-44.20249715 11.49786445 -39.85717037 5.2357751 -32.2265625 0.48046875 C-22.61524196 -4.26111605 -9.77434486 -4.68971092 0 0 Z " fill="#3d85c6" transform="translate(1072.8828125,1151.67578125)"/>
<path d="M0 0 C2.12696259 -0.00958631 4.2529082 -0.04053448 6.37963867 -0.07226562 C15.23407264 -0.14119883 23.29641069 0.34487332 31.10424805 4.92773438 C35.30068499 9.49444516 37.45061212 13.99494633 37.72924805 20.24023438 C37.49084284 25.24674381 36.30384128 29.24414922 33.22924805 33.24023438 C30.98906697 35.21178561 28.78716216 36.66613338 26.22924805 38.24023438 C26.77194336 39.2534375 27.31463867 40.26664063 27.8737793 41.31054688 C28.59647774 42.66208682 29.31913162 44.01365058 30.04174805 45.36523438 C30.39817383 46.03039063 30.75459961 46.69554687 31.12182617 47.38085938 C33.21867477 51.30523656 35.25904899 55.25011515 37.22924805 59.24023438 C34.51766998 61.95181245 27.38177656 60.85215257 23.7512207 60.90869141 C16.98020009 60.76125691 16.98020009 60.76125691 13.6394043 58.44335938 C12.07400662 56.06937205 11.09125177 53.94499097 10.22924805 51.24023438 C9.77549805 50.06460937 9.32174805 48.88898438 8.85424805 47.67773438 C8.64799805 46.87335938 8.44174805 46.06898437 8.22924805 45.24023438 C7.56924805 45.24023438 6.90924805 45.24023438 6.22924805 45.24023438 C6.24084961 46.23925781 6.25245117 47.23828125 6.2644043 48.26757812 C6.27342773 49.55792969 6.28245117 50.84828125 6.29174805 52.17773438 C6.30334961 53.46550781 6.31495117 54.75328125 6.3269043 56.08007812 C6.22924805 59.24023438 6.22924805 59.24023438 5.22924805 60.24023438 C3.8988118 60.33860647 2.5633146 60.3710203 1.22924805 60.37304688 C0.42487305 60.37433594 -0.37950195 60.375625 -1.20825195 60.37695312 C-2.05387695 60.37308594 -2.89950195 60.36921875 -3.77075195 60.36523438 C-4.61637695 60.36910156 -5.46200195 60.37296875 -6.33325195 60.37695312 C-7.13762695 60.37566406 -7.94200195 60.374375 -8.77075195 60.37304688 C-9.51325195 60.37191895 -10.25575195 60.37079102 -11.02075195 60.36962891 C-12.77075195 60.24023438 -12.77075195 60.24023438 -13.77075195 59.24023438 C-13.86974756 57.43514065 -13.89874346 55.6261651 -13.90014648 53.81835938 C-13.90329865 52.66045898 -13.90645081 51.50255859 -13.90969849 50.30957031 C-13.90767426 49.04918945 -13.90565002 47.78880859 -13.90356445 46.49023438 C-13.90499954 44.5648584 -13.90499954 44.5648584 -13.90646362 42.60058594 C-13.90794026 39.88019614 -13.90578714 37.15983912 -13.90112305 34.43945312 C-13.89542576 30.94538768 -13.89870495 27.45139905 -13.90469551 23.95733643 C-13.9091695 20.63496285 -13.9060408 17.31261014 -13.90356445 13.99023438 C-13.90558868 12.72985352 -13.90761292 11.46947266 -13.90969849 10.17089844 C-13.90654633 9.01299805 -13.90339417 7.85509766 -13.90014648 6.66210938 C-13.89895309 5.12441895 -13.89895309 5.12441895 -13.8977356 3.55566406 C-13.57792082 -2.27586363 -4.56417079 0.01242938 0 0 Z M6.22924805 19.24023438 C6.18844022 21.23981801 6.18670448 23.24068691 6.22924805 25.24023438 C7.68717689 25.29423174 9.14567516 25.33302614 10.60424805 25.36523438 C11.82241211 25.40003906 11.82241211 25.40003906 13.06518555 25.43554688 C15.44267048 25.45393488 15.44267048 25.45393488 17.22924805 23.24023438 C16.82395903 20.45785783 16.82395903 20.45785783 15.22924805 18.24023438 C13.35602857 18.07969623 13.35602857 18.07969623 11.22924805 18.11523438 C10.50737305 18.11265625 9.78549805 18.11007812 9.04174805 18.10742188 C7.2083539 18.04328161 7.2083539 18.04328161 6.22924805 19.24023438 Z " fill="#3d85c6" transform="translate(685.770751953125,1148.759765625)"/>
<path d="M0 0 C1.27423828 -0.00193359 1.27423828 -0.00193359 2.57421875 -0.00390625 C3.91419922 0.00189453 3.91419922 0.00189453 5.28125 0.0078125 C6.17457031 0.00394531 7.06789063 0.00007813 7.98828125 -0.00390625 C8.83777344 -0.00261719 9.68726563 -0.00132813 10.5625 0 C11.34689453 0.00112793 12.13128906 0.00225586 12.93945312 0.00341797 C14.78125 0.1328125 14.78125 0.1328125 15.78125 1.1328125 C15.86776611 2.54851373 15.88829904 3.9684075 15.87890625 5.38671875 C15.87568359 6.24072266 15.87246094 7.09472656 15.86914062 7.97460938 C15.86076172 8.87244141 15.85238281 9.77027344 15.84375 10.6953125 C15.83923828 11.59701172 15.83472656 12.49871094 15.83007812 13.42773438 C15.81825225 15.66282564 15.8017722 17.89778687 15.78125 20.1328125 C16.44125 20.1328125 17.10125 20.1328125 17.78125 20.1328125 C18.02230469 19.46894531 18.26335938 18.80507812 18.51171875 18.12109375 C21.32784574 11.49236406 24.6724631 4.29590257 30.78125 0.1328125 C37.60486332 -1.69286013 44.86223815 -0.80661607 51.78125 0.1328125 C51.22905673 3.92971168 50.25339665 6.30425832 47.98046875 9.3828125 C47.41521484 10.15625 46.84996094 10.9296875 46.26757812 11.7265625 C45.67396484 12.520625 45.08035156 13.3146875 44.46875 14.1328125 C43.88673828 14.926875 43.30472656 15.7209375 42.70507812 16.5390625 C39.81153884 20.47139221 36.86974565 24.35035857 33.78125 28.1328125 C35.33833329 32.86706573 37.98800542 36.34636708 40.96875 40.2578125 C45.5549793 46.38058333 49.79919112 52.59571242 53.78125 59.1328125 C50.92348067 61.99058183 42.90890306 60.74879261 39.08007812 60.79467773 C31.61323401 60.63455216 31.61323401 60.63455216 27.9765625 58.44140625 C26.2004676 56.08828513 25.0037344 53.81178822 23.78125 51.1328125 C22.65645838 49.47252783 21.51112769 47.8259353 20.34375 46.1953125 C17.78125 42.401742 17.78125 42.401742 17.78125 40.1328125 C17.12125 40.1328125 16.46125 40.1328125 15.78125 40.1328125 C15.78910522 40.98830688 15.78910522 40.98830688 15.79711914 41.86108398 C15.81783221 44.43081573 15.8308919 47.00052997 15.84375 49.5703125 C15.85212891 50.46814453 15.86050781 51.36597656 15.86914062 52.29101562 C15.87397461 53.57202148 15.87397461 53.57202148 15.87890625 54.87890625 C15.88414307 55.66966553 15.88937988 56.4604248 15.89477539 57.27514648 C15.78125 59.1328125 15.78125 59.1328125 14.78125 60.1328125 C13.37776265 60.23141381 11.96944523 60.26360187 10.5625 60.265625 C9.28826172 60.26755859 9.28826172 60.26755859 7.98828125 60.26953125 C6.64830078 60.26373047 6.64830078 60.26373047 5.28125 60.2578125 C4.38792969 60.26167969 3.49460937 60.26554687 2.57421875 60.26953125 C1.72472656 60.26824219 0.87523437 60.26695313 0 60.265625 C-0.78439453 60.26449707 -1.56878906 60.26336914 -2.37695312 60.26220703 C-4.21875 60.1328125 -4.21875 60.1328125 -5.21875 59.1328125 C-5.31774561 57.32771877 -5.34674151 55.51874322 -5.34814453 53.7109375 C-5.35129669 52.55303711 -5.35444885 51.39513672 -5.35769653 50.20214844 C-5.3556723 48.94176758 -5.35364807 47.68138672 -5.3515625 46.3828125 C-5.35299759 44.45743652 -5.35299759 44.45743652 -5.35446167 42.49316406 C-5.35593831 39.77277426 -5.35378519 37.05241725 -5.34912109 34.33203125 C-5.34342381 30.83796581 -5.34670299 27.34397717 -5.35269356 23.84991455 C-5.35716754 20.52754097 -5.35403885 17.20518827 -5.3515625 13.8828125 C-5.35358673 12.62243164 -5.35561096 11.36205078 -5.35769653 10.06347656 C-5.35454437 8.90557617 -5.35139221 7.74767578 -5.34814453 6.5546875 C-5.34695114 5.01699707 -5.34695114 5.01699707 -5.34573364 3.44824219 C-5.12804399 -0.52112797 -3.54146344 0.00509249 0 0 Z " fill="#3d85c6" transform="translate(740.21875,1148.8671875)"/>
<path d="M0 0 C0.91644287 0.00523682 1.83288574 0.01047363 2.77709961 0.01586914 C4.26113281 0.02070312 4.26113281 0.02070312 5.77514648 0.02563477 C6.81606445 0.03401367 7.85698242 0.04239258 8.92944336 0.05102539 C10.49662109 0.05779297 10.49662109 0.05779297 12.09545898 0.06469727 C14.68600996 0.07652627 17.27644895 0.0930085 19.86694336 0.11352539 C24.50950759 10.77025466 28.52313751 21.66646303 32.56225586 32.56225586 C33.752991 35.76827079 34.9544702 38.97013887 36.15600586 42.17211914 C36.91187754 44.20702911 37.66710982 46.24217673 38.42163086 48.27758789 C38.78296112 49.23581451 39.14429138 50.19404114 39.51657104 51.18130493 C39.8408609 52.06337616 40.16515076 52.94544739 40.49926758 53.85424805 C40.93298172 55.01907211 40.93298172 55.01907211 41.37545776 56.20742798 C41.86694336 58.11352539 41.86694336 58.11352539 40.86694336 60.11352539 C34.26694336 60.11352539 27.66694336 60.11352539 20.86694336 60.11352539 C19.87694336 57.80352539 18.88694336 55.49352539 17.86694336 53.11352539 C11.92694336 53.11352539 5.98694336 53.11352539 -0.13305664 53.11352539 C-1.12305664 55.42352539 -2.11305664 57.73352539 -3.13305664 60.11352539 C-9.40305664 60.11352539 -15.67305664 60.11352539 -22.13305664 60.11352539 C-23.22969982 55.72695266 -22.92862642 54.71612799 -21.42651367 50.62646484 C-21.02925079 49.5288533 -20.63198792 48.43124176 -20.22268677 47.30036926 C-19.78318695 46.1210936 -19.34368713 44.94181793 -18.89086914 43.72680664 C-18.44790497 42.51405563 -18.0049408 41.30130463 -17.54855347 40.05180359 C-16.61172914 37.48813628 -15.66795669 34.92718158 -14.71850586 32.36816406 C-13.49960467 29.08275844 -12.29259629 25.79315164 -11.09002876 22.50173664 C-9.94422029 19.36698414 -8.79271543 16.23434616 -7.64086914 13.10180664 C-7.20541779 11.91645828 -6.76996643 10.73110992 -6.32131958 9.50984192 C-5.91775238 8.42168686 -5.51418518 7.3335318 -5.09838867 6.21240234 C-4.74229523 5.24961868 -4.38620178 4.28683502 -4.01931763 3.2948761 C-2.73988849 0.14582215 -2.73988849 0.14582215 0 0 Z M7.86694336 26.11352539 C6.55067644 29.73325941 5.86694336 32.2091967 5.86694336 36.11352539 C7.84694336 36.11352539 9.82694336 36.11352539 11.86694336 36.11352539 C11.72256836 34.83477539 11.57819336 33.55602539 11.42944336 32.23852539 C11.30762695 31.15958008 11.30762695 31.15958008 11.18334961 30.05883789 C10.95401375 28.03948223 10.95401375 28.03948223 9.86694336 26.11352539 C9.20694336 26.11352539 8.54694336 26.11352539 7.86694336 26.11352539 Z " fill="#3d85c6" transform="translate(619.133056640625,1148.886474609375)"/>
<path d="M0 0 C0.84477905 0.00202423 1.68955811 0.00404846 2.55993652 0.00613403 C3.42179565 0.00517731 4.28365479 0.00422058 5.17163086 0.00323486 C6.99751864 0.00255304 8.82340884 0.00440749 10.64929199 0.00857544 C13.45419731 0.01392367 16.25894248 0.00863054 19.06384277 0.00222778 C20.83337438 0.00288856 22.60290588 0.00416973 24.37243652 0.00613403 C25.21721558 0.0041098 26.06199463 0.00208557 26.93237305 0 C32.85123621 0.02399622 32.85123621 0.02399622 33.96618652 1.13894653 C34.06593685 3.65030758 34.10500835 6.12798068 34.09118652 8.63894653 C34.0969873 9.69275513 34.0969873 9.69275513 34.10290527 10.76785278 C34.0928003 16.01233275 34.0928003 16.01233275 32.96618652 17.13894653 C31.55290705 17.29515208 30.13264063 17.38950826 28.71228027 17.45535278 C27.85827637 17.49724731 27.00427246 17.53914185 26.12438965 17.58230591 C24.7776416 17.64128052 24.7776416 17.64128052 23.40368652 17.70144653 C22.5019873 17.74463013 21.60028809 17.78781372 20.67126465 17.83230591 C18.43640168 17.93872795 16.20142344 18.04074641 13.96618652 18.13894653 C13.96618652 19.12894653 13.96618652 20.11894653 13.96618652 21.13894653 C15.18177246 21.19953247 16.3973584 21.26011841 17.64978027 21.32254028 C19.2344288 21.40692985 20.81906354 21.49157864 22.40368652 21.57644653 C23.20612793 21.61576294 24.00856934 21.65507935 24.83532715 21.69558716 C30.85290527 22.02566528 30.85290527 22.02566528 31.96618652 23.13894653 C32.06527955 25.47054708 32.09589156 27.80524595 32.09118652 30.13894653 C32.09505371 32.05707153 32.09505371 32.05707153 32.09899902 34.01394653 C31.96618652 37.13894653 31.96618652 37.13894653 30.96618652 38.13894653 C28.10740743 38.37595892 25.26735355 38.56113835 22.40368652 38.70144653 C21.59737793 38.74463013 20.79106934 38.78781372 19.96032715 38.83230591 C17.96249848 38.93869915 15.96436583 39.03935541 13.96618652 39.13894653 C13.96618652 40.45894653 13.96618652 41.77894653 13.96618652 43.13894653 C14.82168091 43.17653076 14.82168091 43.17653076 15.69445801 43.21487427 C18.26444809 43.33051202 20.8340418 43.45338278 23.40368652 43.57644653 C24.30151855 43.61576294 25.19935059 43.65507935 26.12438965 43.69558716 C26.97839355 43.73748169 27.83239746 43.77937622 28.71228027 43.82254028 C29.50303955 43.859198 30.29379883 43.89585571 31.10852051 43.93362427 C32.96618652 44.13894653 32.96618652 44.13894653 33.96618652 45.13894653 C34.06527955 47.47054708 34.09589156 49.80524595 34.09118652 52.13894653 C34.09505371 54.05707153 34.09505371 54.05707153 34.09899902 56.01394653 C33.96618652 59.13894653 33.96618652 59.13894653 32.96618652 60.13894653 C30.09354596 60.24001527 27.24545024 60.27864325 24.37243652 60.27175903 C23.51057739 60.27271576 22.64871826 60.27367249 21.76074219 60.2746582 C19.9348544 60.27534003 18.10896421 60.27348558 16.28308105 60.26931763 C13.47817574 60.26396939 10.67343057 60.26926253 7.86853027 60.27566528 C6.09899867 60.2750045 4.32946716 60.27372334 2.55993652 60.27175903 C1.71515747 60.27378326 0.87037842 60.2758075 0 60.27789307 C-5.91886316 60.25389685 -5.91886316 60.25389685 -7.03381348 59.13894653 C-7.13280909 57.33385281 -7.16180498 55.52487725 -7.16320801 53.71707153 C-7.16636017 52.55917114 -7.16951233 51.40127075 -7.17276001 50.20828247 C-7.17073578 48.94790161 -7.16871155 47.68752075 -7.16662598 46.38894653 C-7.16806107 44.46357056 -7.16806107 44.46357056 -7.16952515 42.4992981 C-7.17100178 39.7789083 -7.16884867 37.05855128 -7.16418457 34.33816528 C-7.15848728 30.84409984 -7.16176647 27.3501112 -7.16775703 23.85604858 C-7.17223102 20.533675 -7.16910233 17.2113223 -7.16662598 13.88894653 C-7.16865021 12.62856567 -7.17067444 11.36818481 -7.17276001 10.0696106 C-7.16960785 8.91171021 -7.16645569 7.75380981 -7.16320801 6.56082153 C-7.16201462 5.0231311 -7.16201462 5.0231311 -7.16079712 3.45437622 C-6.90611497 -1.1895181 -3.96769015 0.01608579 0 0 Z " fill="#3d85c6" transform="translate(813.0338134765625,1148.8610534667969)"/>
<path d="M0 0 C1.46657043 -0.00472824 1.46657043 -0.00472824 2.96276855 -0.009552 C4.0262854 -0.00752777 5.08980225 -0.00550354 6.18554688 -0.00341797 C7.81127625 -0.00485306 7.81127625 -0.00485306 9.46984863 -0.00631714 C11.76652077 -0.00699912 14.06319482 -0.00514358 16.35986328 -0.00097656 C19.88904115 0.00437141 23.41809174 -0.00092097 26.94726562 -0.00732422 C29.17252632 -0.00666344 31.39778694 -0.00538228 33.62304688 -0.00341797 C34.68656372 -0.0054422 35.75008057 -0.00746643 36.8458252 -0.009552 C37.82353882 -0.00639984 38.80125244 -0.00324768 39.80859375 0 C40.67383667 0.00079559 41.53907959 0.00159119 42.43054199 0.00241089 C44.40429688 0.12939453 44.40429688 0.12939453 45.40429688 1.12939453 C45.5040472 3.64075558 45.54311871 6.11842868 45.52929688 8.62939453 C45.53509766 9.68320313 45.53509766 9.68320313 45.54101562 10.75830078 C45.53091065 16.00278075 45.53091065 16.00278075 44.40429688 17.12939453 C42.22136914 17.36421146 40.03226513 17.54302776 37.84179688 17.69189453 C36.04548828 17.81757812 36.04548828 17.81757812 34.21289062 17.94580078 C33.28605469 18.00638672 32.35921875 18.06697266 31.40429688 18.12939453 C31.36671265 19.98455688 31.36671265 19.98455688 31.32836914 21.87719727 C31.23447435 26.44876167 31.13421058 31.02016771 31.03198242 35.59155273 C30.98856544 37.57328599 30.94689551 39.55505831 30.90698242 41.53686523 C30.84944305 44.37902623 30.78570243 47.22098936 30.72070312 50.06298828 C30.69563438 51.40048378 30.69563438 51.40048378 30.6700592 52.76499939 C30.51816858 59.01552282 30.51816858 59.01552282 29.40429688 60.12939453 C28.07386063 60.22776663 26.73836343 60.26018045 25.40429688 60.26220703 C24.59992187 60.26349609 23.79554688 60.26478516 22.96679688 60.26611328 C22.12117187 60.26224609 21.27554688 60.25837891 20.40429688 60.25439453 C19.55867187 60.25826172 18.71304688 60.26212891 17.84179688 60.26611328 C17.03742187 60.26482422 16.23304688 60.26353516 15.40429688 60.26220703 C14.66179688 60.2610791 13.91929687 60.25995117 13.15429688 60.25878906 C11.40429688 60.12939453 11.40429688 60.12939453 10.40429688 59.12939453 C10.24394128 56.10132409 10.1446924 53.09353999 10.08789062 50.06298828 C10.06710953 49.15436539 10.04632843 48.24574249 10.0249176 47.30958557 C9.95932016 44.39543507 9.90049007 41.48119149 9.84179688 38.56689453 C9.79862133 36.59618162 9.75500737 34.62547827 9.7109375 32.65478516 C9.60362844 27.81308465 9.50239013 22.97129017 9.40429688 18.12939453 C7.90576172 18.03851562 7.90576172 18.03851562 6.37695312 17.94580078 C5.08660156 17.86201172 3.79625 17.77822266 2.46679688 17.69189453 C0.53513672 17.57007813 0.53513672 17.57007813 -1.43554688 17.44580078 C-4.59570312 17.12939453 -4.59570312 17.12939453 -5.59570312 16.12939453 C-5.69545345 13.61803349 -5.73452496 11.14036038 -5.72070312 8.62939453 C-5.72457031 7.92685547 -5.7284375 7.22431641 -5.73242188 6.50048828 C-5.71990698 0.00525947 -5.71990698 0.00525947 0 0 Z " fill="#3d85c6" transform="translate(862.595703125,1148.87060546875)"/>
<path d="M0 0 C1.27423828 -0.00193359 1.27423828 -0.00193359 2.57421875 -0.00390625 C3.91419922 0.00189453 3.91419922 0.00189453 5.28125 0.0078125 C6.17457031 0.00394531 7.06789063 0.00007813 7.98828125 -0.00390625 C8.83777344 -0.00261719 9.68726563 -0.00132813 10.5625 0 C11.34689453 0.00112793 12.13128906 0.00225586 12.93945312 0.00341797 C14.78125 0.1328125 14.78125 0.1328125 15.78125 1.1328125 C15.88024561 2.93790623 15.90924151 4.74688178 15.91064453 6.5546875 C15.91379669 7.71258789 15.91694885 8.87048828 15.92019653 10.06347656 C15.9181723 11.32385742 15.91614807 12.58423828 15.9140625 13.8828125 C15.91549759 15.80818848 15.91549759 15.80818848 15.91696167 17.77246094 C15.91843831 20.49285074 15.91628519 23.21320775 15.91162109 25.93359375 C15.90592381 29.42765919 15.90920299 32.92164783 15.91519356 36.41571045 C15.91966754 39.73808403 15.91653885 43.06043673 15.9140625 46.3828125 C15.91608673 47.64319336 15.91811096 48.90357422 15.92019653 50.20214844 C15.91704437 51.36004883 15.91389221 52.51794922 15.91064453 53.7109375 C15.90984894 54.73606445 15.90905334 55.76119141 15.90823364 56.81738281 C15.78125 59.1328125 15.78125 59.1328125 14.78125 60.1328125 C13.37776265 60.23141381 11.96944523 60.26360187 10.5625 60.265625 C9.28826172 60.26755859 9.28826172 60.26755859 7.98828125 60.26953125 C6.64830078 60.26373047 6.64830078 60.26373047 5.28125 60.2578125 C4.38792969 60.26167969 3.49460937 60.26554687 2.57421875 60.26953125 C1.72472656 60.26824219 0.87523437 60.26695313 0 60.265625 C-0.78439453 60.26449707 -1.56878906 60.26336914 -2.37695312 60.26220703 C-4.21875 60.1328125 -4.21875 60.1328125 -5.21875 59.1328125 C-5.31774561 57.32771877 -5.34674151 55.51874322 -5.34814453 53.7109375 C-5.35129669 52.55303711 -5.35444885 51.39513672 -5.35769653 50.20214844 C-5.3556723 48.94176758 -5.35364807 47.68138672 -5.3515625 46.3828125 C-5.35299759 44.45743652 -5.35299759 44.45743652 -5.35446167 42.49316406 C-5.35593831 39.77277426 -5.35378519 37.05241725 -5.34912109 34.33203125 C-5.34342381 30.83796581 -5.34670299 27.34397717 -5.35269356 23.84991455 C-5.35716754 20.52754097 -5.35403885 17.20518827 -5.3515625 13.8828125 C-5.35358673 12.62243164 -5.35561096 11.36205078 -5.35769653 10.06347656 C-5.35454437 8.90557617 -5.35139221 7.74767578 -5.34814453 6.5546875 C-5.34695114 5.01699707 -5.34695114 5.01699707 -5.34573364 3.44824219 C-5.12804399 -0.52112797 -3.54146344 0.00509249 0 0 Z " fill="#3d85c6" transform="translate(925.21875,1148.8671875)"/>
<path d="M0 0 C0.66 0.33 1.32 0.66 2 1 C3.57369738 1.09840878 5.15151707 1.1338538 6.72828102 1.1386652 C7.73199765 1.14413964 8.73571428 1.14961409 9.76984656 1.15525442 C11.43616128 1.15672158 11.43616128 1.15672158 13.13613892 1.15821838 C14.89667148 1.16562535 14.89667148 1.16562535 16.69277036 1.17318195 C19.96050523 1.18592491 23.22821697 1.19419087 26.4959693 1.20060861 C30.01608858 1.20859819 33.53618605 1.22230091 37.05628967 1.23532104 C43.15841618 1.25710431 49.26054486 1.27524202 55.36268997 1.29092598 C64.18544163 1.31360778 73.00816915 1.34175293 81.83090036 1.37124526 C96.1440922 1.41894192 110.45729389 1.46220047 124.77050781 1.50268555 C138.67709114 1.54202993 152.5836657 1.58345361 166.49023438 1.62768555 C167.7753478 1.63177196 167.7753478 1.63177196 169.08642311 1.63594092 C173.3843104 1.64962022 177.68219756 1.66334053 181.98008466 1.67708123 C217.65337162 1.79107858 253.32667713 1.89788071 289 2 C289 2.33 289 2.66 289 3 C98.26 3 -92.48 3 -289 3 C-289 2.67 -289 2.34 -289 2 C-288.09021422 1.99739563 -288.09021422 1.99739563 -287.16204894 1.99473864 C-251.24662061 1.89180049 -215.33121143 1.78370753 -179.41581909 1.66888306 C-175.10729097 1.65511282 -170.79876272 1.64138582 -166.49023438 1.62768555 C-165.63245256 1.62495724 -164.77467074 1.62222894 -163.89089553 1.61941796 C-149.985989 1.57529453 -136.08107431 1.5346776 -122.1761535 1.49534739 C-107.91763485 1.45493931 -93.65913139 1.41078426 -79.40063512 1.36312145 C-70.59624341 1.33380942 -61.79185288 1.30745046 -52.98744141 1.28482103 C-46.95703875 1.26904201 -40.9266547 1.24963673 -34.89627267 1.22733159 C-31.41256743 1.21455467 -27.92887657 1.20342279 -24.44515419 1.19658089 C-20.6754502 1.18834717 -16.90581736 1.17407829 -13.13613892 1.15821838 C-12.02526244 1.15724028 -10.91438596 1.15626217 -9.76984656 1.15525442 C-8.76612993 1.14977998 -7.7624133 1.14430554 -6.72828102 1.1386652 C-5.85720258 1.13600716 -4.98612415 1.13334911 -4.08864939 1.13061053 C-1.94001419 1.1327234 -1.94001419 1.1327234 0 0 Z " fill="#3d85c6" transform="translate(800,884)"/>
<path d="M0 0 C0.84477905 0.00202423 1.68955811 0.00404846 2.55993652 0.00613403 C3.42179565 0.00517731 4.28365479 0.00422058 5.17163086 0.00323486 C6.99751864 0.00255304 8.82340884 0.00440749 10.64929199 0.00857544 C13.45419731 0.01392367 16.25894248 0.00863054 19.06384277 0.00222778 C20.83337438 0.00288856 22.60290588 0.00416973 24.37243652 0.00613403 C25.21721558 0.0041098 26.06199463 0.00208557 26.93237305 0 C32.85123621 0.02399622 32.85123621 0.02399622 33.96618652 1.13894653 C34.06593685 3.65030758 34.10500835 6.12798068 34.09118652 8.63894653 C34.0969873 9.69275513 34.0969873 9.69275513 34.10290527 10.76785278 C34.0928003 16.01233275 34.0928003 16.01233275 32.96618652 17.13894653 C31.4797966 17.29549681 29.98669525 17.38961596 28.49353027 17.45535278 C27.59440918 17.49724731 26.69528809 17.53914185 25.7689209 17.58230591 C24.82339355 17.62162231 23.87786621 17.66093872 22.90368652 17.70144653 C21.95429199 17.74463013 21.00489746 17.78781372 20.0267334 17.83230591 C17.67337299 17.93873929 15.31990298 18.04075662 12.96618652 18.13894653 C12.96618652 17.47894653 12.96618652 16.81894653 12.96618652 16.13894653 C19.23618652 15.80894653 25.50618652 15.47894653 31.96618652 15.13894653 C31.96618652 10.84894653 31.96618652 6.55894653 31.96618652 2.13894653 C19.42618652 2.13894653 6.88618652 2.13894653 -6.03381348 2.13894653 C-6.03381348 20.94894653 -6.03381348 39.75894653 -6.03381348 59.13894653 C-6.36381348 59.13894653 -6.69381348 59.13894653 -7.03381348 59.13894653 C-7.05694199 51.5939642 -7.07473116 44.04898553 -7.08562565 36.50397587 C-7.09085336 33.00085769 -7.09794898 29.49776369 -7.10925293 25.99465942 C-7.12215553 21.97113813 -7.12704259 17.94764239 -7.13146973 13.92410278 C-7.13921165 12.02882591 -7.13921165 12.02882591 -7.14710999 10.09526062 C-7.14718552 8.93413254 -7.14726105 7.77300446 -7.14733887 6.57669067 C-7.15066978 5.03447594 -7.15066978 5.03447594 -7.15406799 3.46110535 C-6.91313984 -1.19130563 -3.97232422 0.01610457 0 0 Z " fill="#3d85c6" transform="translate(813.0338134765625,1148.8610534667969)"/>
<path d="M0 0 C0.74886475 0.00523682 1.49772949 0.01047363 2.26928711 0.01586914 C3.07817383 0.0190918 3.88706055 0.02231445 4.72045898 0.02563477 C5.5705957 0.03401367 6.42073242 0.04239258 7.29663086 0.05102539 C8.15063477 0.05553711 9.00463867 0.06004883 9.88452148 0.06469727 C12.00108749 0.07652166 14.11761771 0.0944577 16.23413086 0.11352539 C16.23413086 0.77352539 16.23413086 1.43352539 16.23413086 2.11352539 C7.81913086 2.60852539 7.81913086 2.60852539 -0.76586914 3.11352539 C-1.09586914 21.59352539 -1.42586914 40.07352539 -1.76586914 59.11352539 C-2.09586914 59.11352539 -2.42586914 59.11352539 -2.76586914 59.11352539 C-2.78899765 51.56854306 -2.80678683 44.02356438 -2.81768131 36.47855473 C-2.82290903 32.97543654 -2.83000464 29.47234254 -2.84130859 25.96923828 C-2.8542112 21.94571699 -2.85909826 17.92222125 -2.86352539 13.89868164 C-2.87126732 12.00340477 -2.87126732 12.00340477 -2.87916565 10.06983948 C-2.87924118 8.9087114 -2.87931671 7.74758331 -2.87939453 6.55126953 C-2.88272545 5.00905479 -2.88272545 5.00905479 -2.88612366 3.4356842 C-2.71725085 0.17468846 -2.71725085 0.17468846 0 0 Z " fill="#3d85c6" transform="translate(958.765869140625,1148.886474609375)"/>
<path d="M0 0 C0.74886475 0.00523682 1.49772949 0.01047363 2.26928711 0.01586914 C3.07817383 0.0190918 3.88706055 0.02231445 4.72045898 0.02563477 C5.5705957 0.03401367 6.42073242 0.04239258 7.29663086 0.05102539 C8.15063477 0.05553711 9.00463867 0.06004883 9.88452148 0.06469727 C12.00108749 0.07652166 14.11761771 0.0944577 16.23413086 0.11352539 C16.23413086 0.77352539 16.23413086 1.43352539 16.23413086 2.11352539 C10.62413086 2.11352539 5.01413086 2.11352539 -0.76586914 2.11352539 C-0.76586914 10.69352539 -0.76586914 19.27352539 -0.76586914 28.11352539 C-1.75586914 28.11352539 -2.74586914 28.11352539 -3.76586914 28.11352539 C-4.09586914 27.12352539 -4.42586914 26.13352539 -4.76586914 25.11352539 C-4.10586914 25.11352539 -3.44586914 25.11352539 -2.76586914 25.11352539 C-2.77110596 24.39173096 -2.77634277 23.66993652 -2.78173828 22.92626953 C-2.80244272 19.6761969 -2.81550832 16.42613811 -2.82836914 13.17602539 C-2.83674805 12.0397168 -2.84512695 10.9034082 -2.85375977 9.73266602 C-2.85698242 8.65307617 -2.86020508 7.57348633 -2.86352539 6.46118164 C-2.86876221 5.46094971 -2.87399902 4.46071777 -2.87939453 3.43017578 C-2.71987053 0.17485688 -2.71987053 0.17485688 0 0 Z " fill="#3d85c6" transform="translate(995.765869140625,1148.886474609375)"/>
<path d="M0 0 C3.3128652 0.13820269 6.62517989 0.28683778 9.9375 0.4375 C11.35579102 0.49647461 11.35579102 0.49647461 12.80273438 0.55664062 C14.15141602 0.61948242 14.15141602 0.61948242 15.52734375 0.68359375 C16.77632446 0.73858032 16.77632446 0.73858032 18.05053711 0.79467773 C20 1 20 1 21 2 C21.07271741 4.35313555 21.08370868 6.70833668 21.0625 9.0625 C21.05347656 10.35285156 21.04445313 11.64320312 21.03515625 12.97265625 C21.02355469 13.97167969 21.01195312 14.97070312 21 16 C20.34 16 19.68 16 19 16 C19 11.71 19 7.42 19 3 C12.73 3 6.46 3 0 3 C0 2.01 0 1.02 0 0 Z " fill="#3d85c6" transform="translate(826,1192)"/>
<path d="M0 0 C14.85 0 29.7 0 45 0 C45.66 1.98 46.32 3.96 47 6 C45 5 45 5 44 2 C38.05520371 1.92598421 32.11067407 1.87146187 26.16552734 1.83520508 C24.14204234 1.82009474 22.1185902 1.79960563 20.09521484 1.77368164 C17.19099835 1.73739672 14.28721385 1.72029645 11.3828125 1.70703125 C10.47443634 1.69154739 9.56606018 1.67606354 8.63015747 1.66011047 C7.78943695 1.65988388 6.94871643 1.65965729 6.08251953 1.65942383 C5.34083527 1.65276199 4.599151 1.64610016 3.83499146 1.63923645 C3.22944427 1.75828842 2.62389709 1.87734039 2 2 C1.01 3.485 1.01 3.485 0 5 C-0.66 5 -1.32 5 -2 5 C-1.34 3.35 -0.68 1.7 0 0 Z " fill="#3d85c6" transform="translate(999,1000)"/>
<path d="M0 0 C14.19 0 28.38 0 43 0 C43 0.33 43 0.66 43 1 C41.76846191 1.01458252 40.53692383 1.02916504 39.26806641 1.04418945 C34.70933642 1.10205652 30.15110643 1.17928932 25.59277344 1.26245117 C23.61792094 1.29575528 21.642972 1.32376997 19.66796875 1.34643555 C16.83291423 1.37988122 13.998748 1.43219046 11.1640625 1.48828125 C10.27756012 1.49467117 9.39105774 1.5010611 8.47769165 1.50764465 C7.65699188 1.52743881 6.83629211 1.54723297 5.99072266 1.56762695 C5.26680328 1.57873001 4.54288391 1.58983307 3.79702759 1.60127258 C1.58351797 1.87490507 1.58351797 1.87490507 0 5 C-0.66 5 -1.32 5 -2 5 C-1.34 3.35 -0.68 1.7 0 0 Z " fill="#3d85c6" transform="translate(893,1000)"/>
<path d="M0 0 C13.53 0 27.06 0 41 0 C41.495 0.99 41.495 0.99 42 2 C41.34 2.99 40.68 3.98 40 5 C39.505 3.02 39.505 3.02 39 1 C26.13 1 13.26 1 0 1 C0 0.67 0 0.34 0 0 Z " fill="#3d85c6" transform="translate(600,1000)"/>
<path d="M0 0 C1.0625 1.8125 1.0625 1.8125 2 4 C1.67 4.99 1.34 5.98 1 7 C-5.6 7 -12.2 7 -19 7 C-17 5 -17 5 -13.0859375 4.8046875 C-11.51550649 4.81799624 -9.94513779 4.84186398 -8.375 4.875 C-7.57320312 4.88402344 -6.77140625 4.89304687 -5.9453125 4.90234375 C-3.96341477 4.92593777 -1.98167019 4.96180935 0 5 C0 3.35 0 1.7 0 0 Z " fill="#3d85c6" transform="translate(1083,1164)"/>
<path d="M0 0 C0.33 0 0.66 0 1 0 C1 7.92 1 15.84 1 24 C0.67 24 0.34 24 0 24 C0 18.72 0 13.44 0 8 C-0.66 8 -1.32 8 -2 8 C-1.34 5.36 -0.68 2.72 0 0 Z " fill="#3d85c6" transform="translate(564,1184)"/>
<path d="M0 0 C2.5654594 2.5654594 2.54046087 4.47686668 3 8 C2.34 8 1.68 8 1 8 C1 13.28 1 18.56 1 24 C0.67 24 0.34 24 0 24 C0 16.08 0 8.16 0 0 Z " fill="#3d85c6" transform="translate(532,1184)"/>
<path d="" fill="#3d85c6" transform="translate(0,0)"/>
<path d="" fill="#3d85c6" transform="translate(0,0)"/>
<path d="" fill="#3d85c6" transform="translate(0,0)"/>
<path d="" fill="#3d85c6" transform="translate(0,0)"/>
</svg>